<svg width="16" height="16" viewBox="0 0 16 16" fill="none" xmlns="http://www.w3.org/2000/svg">
<g clip-path="url(#clip0_240_6240)">
<path fill-rule="evenodd" clip-rule="evenodd" d="M8.47136 10.4714C8.34634 10.5963 8.1768 10.6665 8.00003 10.6665C7.82325 10.6665 7.65371 10.5963 7.52869 10.4714L3.75736 6.70003C3.69369 6.63853 3.6429 6.56496 3.60796 6.48363C3.57302 6.40229 3.55463 6.31481 3.55386 6.22629C3.55309 6.13777 3.56996 6.04999 3.60348 5.96806C3.637 5.88613 3.6865 5.81169 3.7491 5.7491C3.81169 5.6865 3.88612 5.637 3.96806 5.60348C4.04999 5.56996 4.13777 5.55309 4.22629 5.55386C4.31481 5.55463 4.40229 5.57302 4.48363 5.60796C4.56496 5.6429 4.63853 5.69368 4.70003 5.75736L8.00003 9.05736L11.3 5.75736C11.4258 5.63592 11.5942 5.56872 11.769 5.57024C11.9438 5.57176 12.111 5.64187 12.2346 5.76548C12.3582 5.88908 12.4283 6.05629 12.4298 6.23109C12.4313 6.40589 12.3641 6.57429 12.2427 6.70003L8.47136 10.4714Z" fill="black" fill-opacity="0.5"/>
</g>
<defs>
<clipPath id="clip0_240_6240">
<rect width="16" height="16" fill="white"/>
</clipPath>
</defs>
</svg>
