<svg width="24" height="24" viewBox="0 0 24 24" fill="none" xmlns="http://www.w3.org/2000/svg">
<path d="M17.9734 15H15.9734V17H17.9734M17.9734 11H15.9734V13H17.9734M19.9734 19H11.9734V17H13.9734V15H11.9734V13H13.9734V11H11.9734V9H19.9734M9.97339 7H7.97339V5H9.97339M9.97339 11H7.97339V9H9.97339M9.97339 15H7.97339V13H9.97339M9.97339 19H7.97339V17H9.97339M5.97339 7H3.97339V5H5.97339M5.97339 11H3.97339V9H5.97339M5.97339 15H3.97339V13H5.97339M5.97339 19H3.97339V17H5.97339M11.9734 7V3H1.97339V21H21.9734V7H11.9734Z" fill="#FF6666"/>
</svg>
