<svg width="43" height="42" viewBox="0 0 43 42" fill="none" xmlns="http://www.w3.org/2000/svg">
<path d="M29.375 1.3125H12.3125V3.9375H29.375V1.3125Z" fill="black" fill-opacity="0.5"/>
<path d="M32.7849 17.0599C29.7924 14.5661 28.0625 10.8727 28.0625 6.97725V5.25H13.625V6.97725C13.625 10.8727 11.8951 14.5661 8.90262 17.0599L5.75 19.6875L20.1875 40.6875V26.1844C18.6899 25.8799 17.5625 24.5569 17.5625 22.9688C17.5625 21.1562 19.0312 19.6875 20.8438 19.6875C22.6563 19.6875 24.125 21.1562 24.125 22.9688C24.125 24.5556 22.9976 25.8799 21.5 26.1844V40.6875L35.9375 19.6875L32.7849 17.0599Z" fill="black" fill-opacity="0.5"/>
<path d="M29.375 1.3125H12.3125V3.9375H29.375V1.3125Z" fill="black" fill-opacity="0.5"/>
<path d="M32.7849 17.0599C29.7924 14.5661 28.0625 10.8727 28.0625 6.97725V5.25H13.625V6.97725C13.625 10.8727 11.8951 14.5661 8.90262 17.0599L5.75 19.6875L20.1875 40.6875V26.1844C18.6899 25.8799 17.5625 24.5569 17.5625 22.9688C17.5625 21.1562 19.0312 19.6875 20.8438 19.6875C22.6563 19.6875 24.125 21.1562 24.125 22.9688C24.125 24.5556 22.9976 25.8799 21.5 26.1844V40.6875L35.9375 19.6875L32.7849 17.0599Z" fill="black" fill-opacity="0.5"/>
</svg>
