<svg width="22" height="22" viewBox="0 0 22 22" fill="none" xmlns="http://www.w3.org/2000/svg">
<g clip-path="url(#clip0_221_772)">
<path d="M15.5195 13.037C15.4242 13.0627 15.3248 13.0694 15.2269 13.0566C15.129 13.0438 15.0346 13.0118 14.9491 12.9624C14.8637 12.9131 14.7887 12.8473 14.7287 12.769C14.6687 12.6906 14.6247 12.6012 14.5994 12.5058L13.4214 8.10974L8.82769 16.0663C8.72823 16.2386 8.56442 16.3643 8.37228 16.4158C8.18015 16.4673 7.97543 16.4403 7.80317 16.3409C7.63091 16.2414 7.50521 16.0776 7.45373 15.8855C7.40224 15.6933 7.4292 15.4886 7.52865 15.3163L12.1224 7.35974L7.72528 8.53703C7.53281 8.5886 7.32774 8.5616 7.15518 8.46198C6.98262 8.36235 6.8567 8.19825 6.80513 8.00578C6.75356 7.81331 6.78055 7.60824 6.88018 7.43568C6.97981 7.26312 7.14391 7.1372 7.33638 7.08563L13.4835 5.43851C13.5788 5.4128 13.6782 5.40615 13.7761 5.41895C13.874 5.43175 13.9684 5.46375 14.0539 5.5131C14.1393 5.56246 14.2143 5.6282 14.2743 5.70657C14.3343 5.78493 14.3783 5.87437 14.4036 5.96976L16.0508 12.1169C16.0765 12.2122 16.0831 12.3116 16.0703 12.4095C16.0575 12.5074 16.0255 12.6018 15.9762 12.6873C15.9268 12.7727 15.8611 12.8476 15.7827 12.9077C15.7043 12.9677 15.6149 13.0116 15.5195 13.037Z" fill="black" fill-opacity="0.5"/>
</g>
<defs>
<clipPath id="clip0_221_772">
<rect width="16" height="16" fill="white" transform="translate(8) rotate(30)"/>
</clipPath>
</defs>
</svg>
