<svg width="43" height="42" viewBox="0 0 43 42" fill="none" xmlns="http://www.w3.org/2000/svg">
<g clip-path="url(#clip0_204_302)">
<path d="M41.9874 39.0111L34.5377 31.5614C37.3222 28.222 39 23.9292 39 19.2515C39 8.63708 30.3645 0.00152588 19.75 0.00152588C9.13555 0.00152588 0.5 8.63696 0.5 19.2515C0.5 29.8661 9.13555 38.5015 19.75 38.5015C24.4292 38.5015 28.7233 36.8226 32.0631 34.0366L39.5126 41.4861C39.8544 41.8278 40.3022 41.9986 40.75 41.9986C41.1978 41.9986 41.6458 41.8278 41.9874 41.4861C42.6709 40.8025 42.6709 39.6946 41.9874 39.0111ZM11.5833 27.4182C11.5833 22.9075 15.2398 19.2515 19.75 19.2515C16.8506 19.2515 14.4999 16.901 14.4999 14.0014C14.4999 11.1018 16.8506 8.75153 19.75 8.75153C22.6494 8.75153 25 11.1019 25 14.0014C25 16.9009 22.6494 19.2515 19.75 19.2515C24.2601 19.2515 27.9166 22.9075 27.9166 27.4182H11.5833Z" fill="black" fill-opacity="0.5"/>
</g>
<defs>
<clipPath id="clip0_204_302">
<rect width="42" height="42" fill="white" transform="translate(0.5)"/>
</clipPath>
</defs>
</svg>
