<svg width="43" height="42" viewBox="0 0 43 42" fill="none" xmlns="http://www.w3.org/2000/svg">
<g clip-path="url(#clip0_204_300)">
<path d="M33.26 1.70625C33.0402 1.7325 32.8433 1.84734 32.7087 2.02125L30.1887 5.22375C29.7162 4.61015 28.9747 4.2 28.1412 4.2H25.7787C24.3514 4.2 23.18 5.3714 23.18 6.79875V13.3612C23.18 14.7886 24.3514 15.96 25.7787 15.96H28.1412C28.9747 15.96 29.7162 15.5498 30.1887 14.9362L32.7087 18.1387C32.9548 18.4472 33.3847 18.5358 33.7325 18.3487L42.0537 13.8075C42.4016 13.6205 42.5623 13.2136 42.4409 12.8395C42.3162 12.4622 41.9455 12.2325 41.555 12.285C41.4533 12.3014 41.3548 12.3375 41.2663 12.39L33.575 16.6162L30.74 13.02V7.16625L33.575 3.57L41.2663 7.77C41.5222 7.9439 41.8536 7.95703 42.1227 7.80609C42.3917 7.65515 42.5525 7.3664 42.5361 7.05796C42.523 6.74953 42.3359 6.47718 42.0537 6.3525L33.7325 1.81125C33.5881 1.72922 33.4241 1.69312 33.26 1.70625ZM8.06 2.52C3.89281 2.52 0.5 5.91281 0.5 10.08C0.5 14.2472 3.89281 17.64 8.06 17.64C12.2272 17.64 15.62 14.2472 15.62 10.08C15.62 5.91281 12.2272 2.52 8.06 2.52ZM16.1975 5.88C16.8636 7.1564 17.3 8.54437 17.3 10.08C17.3 11.6156 16.8636 13.8436 16.1975 15.12H21.4737C21.4114 14.828 21.4212 13.7484 21.4212 13.44V6.72C21.4212 6.41156 21.4114 6.17203 21.4737 5.88H16.1975ZM8.06 6.16875C10.2092 6.16875 11.9712 7.93078 11.9712 10.08C11.9712 12.2292 10.2092 13.9912 8.06 13.9912C5.91078 13.9912 4.14875 12.2292 4.14875 10.08C4.14875 7.93078 5.91078 6.16875 8.06 6.16875ZM15.4625 15.5925C13.7759 17.8434 11.0853 19.32 8.06 19.32C7.02969 19.32 6.04531 19.133 5.12 18.8212L12.4962 32.7337H25.1487L15.4625 15.5925ZM6.275 34.44C4.91328 34.44 3.86 35.5458 3.86 36.96V41.16C3.86 41.6489 4.21109 42 4.7 42H33.26C33.7489 42 34.1 41.6489 34.1 41.16V36.96C34.1 35.5458 33.0467 34.44 31.685 34.44H6.275Z" fill="black" fill-opacity="0.5"/>
</g>
<defs>
<clipPath id="clip0_204_300">
<rect width="42" height="42" fill="white" transform="translate(0.5)"/>
</clipPath>
</defs>
</svg>
