<svg width="16" height="16" viewBox="0 0 16 16" fill="none" xmlns="http://www.w3.org/2000/svg">
<path d="M6.10959 11.7671C5.94976 11.9163 5.82606 12.0161 5.69965 12.0891C5.08084 12.4464 4.31845 12.4464 3.69965 12.0891C3.47161 11.9575 3.25242 11.7383 2.81403 11.2999C2.37563 10.8615 2.15643 10.6423 2.02479 10.4143C1.66752 9.79548 1.66752 9.03308 2.02479 8.41428C2.15643 8.18628 2.37563 7.96708 2.81403 7.52868L4.69965 5.64307C5.13804 5.20468 5.35723 4.98548 5.58526 4.85383C6.20407 4.49656 6.96647 4.49656 7.58527 4.85382C7.81327 4.98548 8.03247 5.20468 8.47087 5.64307C8.90927 6.08146 9.12847 6.30066 9.26014 6.52868C9.61741 7.14748 9.61741 7.90988 9.26014 8.52868C9.18714 8.65508 9.08727 8.77882 8.93801 8.93862M7.06094 7.06155C6.91167 7.22135 6.81181 7.34508 6.73881 7.47148C6.38157 8.09028 6.38157 8.85268 6.73881 9.47148C6.87047 9.69955 7.08967 9.91875 7.52807 10.3571C7.96647 10.7955 8.18567 11.0147 8.41367 11.1463C9.03247 11.5036 9.79487 11.5036 10.4137 11.1463C10.6417 11.0147 10.8609 10.7955 11.2993 10.3571L13.1849 8.47148C13.6233 8.03308 13.8425 7.81388 13.9741 7.58588C14.3314 6.96708 14.3314 6.20468 13.9741 5.58588C13.8425 5.35785 13.6233 5.13865 13.1849 4.70026C12.7465 4.26186 12.5273 4.04267 12.2993 3.91102C11.6805 3.55375 10.9181 3.55375 10.2993 3.91102C10.1729 3.984 10.0492 4.08389 9.88934 4.23312" stroke="black" stroke-opacity="0.5" stroke-width="1.5" stroke-linecap="round"/>
</svg>
