<svg width="43" height="42" viewBox="0 0 43 42" fill="none" xmlns="http://www.w3.org/2000/svg">
<path d="M36.4101 31.395C37.2753 31.731 38.3001 31.227 38.3001 30.45V3.14999C38.3001 2.37299 37.2753 1.86899 36.4101 2.20499C34.9758 3.06599 33.657 3.94799 32.3802 4.80269C27.8862 7.80569 23.9403 10.4454 17.5038 10.5H8.9001C5.4141 10.5 2.6001 13.314 2.6001 16.8C2.6001 20.286 5.4141 23.1 8.9001 23.1H17.3001C23.8584 23.1 27.8421 25.7628 32.3823 28.7994C33.657 29.652 34.9779 30.534 36.4101 31.395ZM19.4001 37.8H17.7411C16.8381 37.8 16.0401 37.233 15.7671 36.393L11.1471 27.3H19.4001C19.9571 27.3 20.4912 27.5212 20.885 27.9151C21.2788 28.3089 21.5001 28.843 21.5001 29.4V35.7C21.5001 36.855 20.5551 37.8 19.4001 37.8Z" fill="#6B18FF"/>
</svg>
