<svg width="112" height="150" viewBox="0 0 112 150" fill="none" xmlns="http://www.w3.org/2000/svg">
<g clip-path="url(#clip0_205_214)">
<path d="M71.0801 31.8646C71.0801 32.2731 71.0332 32.6914 70.9345 33.1097L66.8084 50.7119C66.2233 53.2144 63.7219 54.764 61.228 54.1724L44.6921 49.0286L43.8846 48.7786C42.9439 49.4618 41.6303 49.7761 40.2574 49.5336C37.8573 49.1078 36.1956 47.1498 36.5462 45.1572C36.8969 43.167 39.1265 41.8972 41.5266 42.3205C42.8995 42.563 44.0279 43.3081 44.6798 44.2711L44.6921 44.2735L44.734 44.2809L59.1268 46.0657L60.3367 31.4315C60.5664 28.6343 62.8973 26.4833 65.6973 26.4833C68.7344 26.4833 71.0801 28.971 71.0801 31.8646Z" fill="#ED9DA0"/>
<path d="M71.0802 31.8647C71.0802 32.2731 71.0333 32.6914 70.9345 33.1098L67.5492 51.4545C66.9641 53.957 64.4627 55.5066 61.9688 54.915L45.4329 50.3059L46.1736 43.1274L58.7664 44.8602L60.3367 31.4315C60.5664 28.6343 62.8973 26.4833 65.6973 26.4833C68.7345 26.4833 71.0802 28.971 71.0802 31.8647Z" fill="#2F2E43"/>
<path d="M0 149.814H8.77543H16.5755H16.8891H23.7559H70.7813H81.9715H111.853" stroke="#090814" stroke-width="1.5" stroke-miterlimit="10"/>
<path d="M92.5561 128.529L88.562 131.481L91.5066 135.485L95.5006 132.533L92.5561 128.529Z" fill="#ED9DA0"/>
<path d="M97.4974 136.679L89.0073 142.954C88.2817 143.49 87.4299 143.863 86.5441 144.031L84.4243 144.433C83.986 144.516 83.5317 144.338 83.267 143.978C82.9566 143.556 82.9654 142.973 83.2884 142.56L85.8588 139.278L89.2422 132.284L89.2618 132.302C89.7508 132.75 90.4936 133.425 90.5493 133.458C91.5943 133.689 92.3967 133.559 92.9345 133.071C93.8725 132.218 93.6834 130.546 93.6814 130.53L93.6799 130.517L93.691 130.51C93.9465 130.359 94.1927 130.326 94.4228 130.41C94.9112 130.588 95.166 131.231 95.2025 131.329C95.6793 131.396 96.9193 132.822 97.0189 132.937C97.7324 133.067 98.2235 133.335 98.4787 133.735C98.7018 134.085 98.7451 134.531 98.6074 135.06C98.4416 135.698 98.0474 136.273 97.4974 136.679Z" fill="#090814"/>
<path d="M58.3052 140.213H53.343V145.187H58.3052V140.213Z" fill="#ED9DA0"/>
<path d="M57.4581 149.712H46.9103C46.0087 149.712 45.1027 149.505 44.2902 149.114L42.3457 148.177C41.9436 147.983 41.6838 147.569 41.6838 147.122C41.6838 146.597 42.036 146.133 42.5402 145.993L46.5519 144.88L53.4149 141.264L53.42 141.29C53.5484 141.942 53.7472 142.926 53.7725 142.986C54.4763 143.794 55.1993 144.167 55.9214 144.093C57.181 143.965 58.0183 142.507 58.0267 142.492L58.033 142.481L58.0459 142.482C58.3408 142.513 58.559 142.632 58.6943 142.837C58.9817 143.271 58.8064 143.94 58.7775 144.041C59.1217 144.379 59.2761 146.263 59.288 146.416C59.7856 146.944 60.022 147.453 59.9907 147.926C59.9633 148.34 59.7342 148.725 59.3098 149.069C58.7991 149.484 58.1415 149.712 57.4581 149.712Z" fill="#090814"/>
<path d="M78.5522 62.4504H54.7701L50.9792 141.543H59.3545L64.7657 105.592L86.4795 134.353L94.4068 127.163L78.5522 105.592V62.4504Z" fill="#090814"/>
<path d="M72.4296 10.4713C72.4296 10.4713 78.9818 10.4571 76.5341 4.12783C74.0864 -2.20142 69.5285 0.632528 69.5285 0.632528C69.5285 0.632528 67.608 1.64951 68.004 3.9185" fill="#090814"/>
<path d="M73.0853 13.5072C73.0853 8.65456 69.1612 4.72067 64.3206 4.72067C59.4801 4.72067 55.5559 8.65456 55.5559 13.5072C55.5559 17.4428 58.137 20.7735 61.6947 21.8922L63.3891 33.1179L72.0268 25.9018C72.0268 25.9018 70.1607 23.5191 69.16 20.8324C71.5252 19.2589 73.0853 16.5662 73.0853 13.5072Z" fill="#ED9DA0"/>
<path d="M68.5316 20.9297C68.5316 20.9297 69.6955 16.4562 67.7924 14.3992C65.8935 12.347 65.6483 15.5402 65.6483 15.5402L64.2781 15.2416C64.2781 15.2416 64.5164 12.1362 61.8357 11.5987L63.5633 7.89615C63.5633 7.89615 56.9493 9.18355 56.767 8.54136C55.3326 3.48839 69.0166 -0.828036 72.7967 6.88092C78.676 18.8709 68.5316 20.9297 68.5316 20.9297Z" fill="#090814"/>
<path d="M73.3298 51.6081L77.2139 63.0826L55.2383 62.835L58.5148 52.3507L73.3298 51.6081Z" fill="#ED9DA0"/>
<path d="M71.3453 22.4847L61.6 25.8811L52.387 73.5624L71.3453 75.8829L72.7277 68.613L74.0455 75.8829H80.6126L73.5325 28.4673C73.2156 26.3451 72.4714 24.3096 71.3453 22.4847Z" fill="#242426"/>
<path d="M68.613 78.5094L68.7826 70.672L64.218 70.5728L64.0484 78.4102C63.1967 79.2027 62.6345 80.4342 62.6043 81.8304C62.5514 84.2735 64.1435 86.2895 66.1603 86.3333C68.1771 86.3772 69.8548 84.4323 69.9077 81.9893C69.9379 80.5931 69.4295 79.3383 68.613 78.5094Z" fill="#ED9DA0"/>
<path d="M62.3113 39.2829V77.2715H70.2386L72.5815 39.6035" fill="#090814"/>
<path d="M78.2748 79.5763C78.1357 79.5763 77.9965 79.5713 77.8569 79.5607C76.1912 79.4352 74.7579 78.5399 73.5966 76.8998C69.2264 70.7264 60.4141 50.2968 60.4141 44.4873C60.4141 38.9355 61.6197 26.2115 61.6614 26.0208L70.5618 21.0806C74.8317 22.0856 77.8039 26.0056 77.6293 30.4015C77.2027 41.1419 78.3011 65.6255 85.4875 75.7717L85.5468 75.8554L85.4759 75.9293C85.3274 76.0835 81.9236 79.5763 78.2748 79.5763Z" fill="#090814"/>
<path d="M35.3417 65.7159C34.0277 65.7159 32.5903 65.3925 31.1767 65.0739C30.1284 64.8361 29.2034 64.779 28.4586 64.7315C27.3344 64.6601 26.4426 64.6031 25.9492 63.9421C25.4606 63.2906 25.4606 62.1825 25.9492 59.995C26.5991 57.0894 28.0459 52.4528 29.82 48.6388C32.1065 43.7169 34.3075 41.4533 36.3568 41.9146C39.1034 42.5328 40.1992 47.1266 40.6071 49.8134C41.1764 53.5608 41.1289 58.0119 40.4838 60.889C39.6299 64.7029 37.6708 65.7111 35.3417 65.7111L35.3417 65.7159ZM35.8445 42.7135C34.336 42.7135 32.486 44.9201 30.5933 49.005C28.8476 52.7619 27.4197 57.3272 26.7841 60.19C26.3714 62.0256 26.3287 63.029 26.637 63.438C26.8979 63.7851 27.5763 63.8279 28.5203 63.885C29.2935 63.9326 30.2517 63.9944 31.3665 64.2464C35.7923 65.2403 38.5626 65.6017 39.6584 60.7083C40.8301 55.463 39.9383 43.598 36.1766 42.7515C36.0674 42.7278 35.9584 42.7135 35.8492 42.7135L35.8445 42.7135Z" fill="#DFDFE0"/>
<path d="M53.2537 100.973L11.0731 101.249L4.51733 98.2292L8.33598 59.1818L12.1783 59.3768L51.6978 61.3931L53.2537 100.973Z" fill="#E2E3E4"/>
<path opacity="0.2" d="M11.0731 101.249L4.51733 98.2292L8.33598 59.1818L12.1783 59.3768L11.0731 101.249Z" fill="#272223"/>
<path d="M13.4147 53.3937L13.3542 53.333L13.2936 53.3937C10.3477 50.4429 5.57335 50.4465 2.62981 53.3998C-0.313729 56.3543 -0.373059 61.2 2.5729 64.1509L13.3614 74.9555L24.1427 64.1376C27.0862 61.1831 27.0245 56.3373 24.0797 53.3865C21.1338 50.4356 16.3595 50.4392 13.4159 53.3925L13.4147 53.3937Z" fill="#597AE8"/>
</g>
<defs>
<clipPath id="clip0_205_214">
<rect width="111.853" height="150" fill="white"/>
</clipPath>
</defs>
</svg>
