<svg width="43" height="42" viewBox="0 0 43 42" fill="none" xmlns="http://www.w3.org/2000/svg">
<path d="M33.0712 19.0752C32.7312 17.4264 32.0511 15.9231 31.1767 14.6137C32.0511 13.6438 32.0511 12.189 31.1281 11.2676C30.6424 10.7826 30.0109 10.5401 29.428 10.5401C28.8451 10.5401 28.2136 10.7826 27.7764 11.2191C26.4648 10.3946 25.0561 9.76421 23.4531 9.42475C23.4531 8.06689 22.3844 7 21.0243 7C19.6642 7 18.5955 8.06689 18.5955 9.42475C16.9925 9.76421 15.4866 10.3946 14.175 11.2676C13.6893 10.7826 13.0578 10.5401 12.4749 10.5401C11.8434 10.5401 11.2119 10.7826 10.7747 11.2676C9.80318 12.2375 9.80318 13.7408 10.7747 14.7107C9.85176 15.9716 9.26884 17.4749 8.88023 19.0752C7.56868 19.0752 6.5 20.1906 6.5 21.5C6.5 22.8094 7.56868 23.9247 8.88023 23.9247C9.17169 25.4766 9.80318 26.9799 10.6776 28.2408C10.629 28.2408 10.629 28.2893 10.5804 28.2893C9.60888 29.2592 9.60888 30.7625 10.5804 31.7324C11.0662 32.2174 11.6977 32.4599 12.2806 32.4599C12.9121 32.4599 13.5436 32.2174 13.9807 31.7324L14.0293 31.6839C15.3894 32.6054 16.8953 33.2358 18.5469 33.5753C18.5469 34.9331 19.6156 36 20.9757 36C22.3358 36 23.4045 34.9331 23.4045 33.5753C25.0075 33.2358 26.4648 32.6053 27.7764 31.7809C28.2621 32.2659 28.8936 32.5084 29.4765 32.5084C30.108 32.5084 30.7395 32.2659 31.1767 31.7809C32.1482 30.811 32.1482 29.3077 31.1767 28.3378C32.0511 27.0284 32.6826 25.5251 33.0226 23.9247C33.0226 23.9247 33.0226 23.9247 33.0712 23.9247C34.4313 23.9247 35.5 22.8579 35.5 21.5C35.5 20.1421 34.3827 19.0752 33.0712 19.0752ZM28.6993 12.286C28.7479 12.2375 28.8451 12.189 28.9422 12.1405C29.0879 12.0435 29.2337 12.0435 29.3794 12.0435C29.6223 12.0435 29.8652 12.1405 30.0595 12.3344C30.3509 12.6254 30.3995 13.1104 30.2052 13.4498C30.1566 13.5468 30.108 13.5953 30.0595 13.6923C29.8652 13.8863 29.6223 13.9833 29.3794 13.9833C29.1365 13.9833 28.8936 13.8863 28.6993 13.6923C28.2621 13.2559 28.2621 12.6739 28.6993 12.286ZM19.9556 9.23077C20.0528 8.79431 20.4414 8.45485 20.9271 8.45485C21.4129 8.45485 21.8015 8.79431 21.8987 9.23077C21.8987 9.27926 21.8987 9.37625 21.8987 9.42475C21.8987 9.95819 21.4615 10.3946 20.9271 10.3946C20.3928 10.3946 19.9556 9.95819 19.9556 9.42475C19.9556 9.37625 19.9556 9.27926 19.9556 9.23077ZM11.6977 12.286C11.892 12.092 12.1348 11.995 12.3777 11.995C12.572 11.995 12.7663 12.0435 12.9121 12.1405C12.9606 12.189 13.0092 12.2375 13.0578 12.286C13.4464 12.6739 13.4464 13.2559 13.0578 13.6438C12.8635 13.8378 12.6206 13.9348 12.3777 13.9348C12.1348 13.9348 11.892 13.8378 11.6977 13.6438C11.6491 13.5953 11.6005 13.5468 11.5519 13.4983C11.309 13.1104 11.309 12.6254 11.6977 12.286ZM8.88023 22.4699C8.78308 22.4699 8.73451 22.4699 8.63735 22.4214C8.20017 22.3244 7.90871 21.9365 7.90871 21.5C7.90871 21.0635 8.24874 20.6756 8.63735 20.5786C8.73451 20.5786 8.78308 20.5301 8.88023 20.5301C9.41457 20.5301 9.85176 20.9666 9.85176 21.5C9.85176 22.0334 9.366 22.4699 8.88023 22.4699ZM12.9121 30.6656C12.8635 30.714 12.8635 30.714 12.8149 30.7625C12.6692 30.908 12.4263 30.9565 12.232 30.9565C11.9891 30.9565 11.7462 30.8595 11.5519 30.6656C11.3576 30.4716 11.2605 30.2291 11.2605 29.9866C11.2605 29.7441 11.3576 29.5502 11.4548 29.4047C11.4548 29.3562 11.5033 29.3562 11.5033 29.3077C11.6977 29.1137 11.9405 29.0167 12.1834 29.0167C12.4263 29.0167 12.6692 29.1137 12.8635 29.3077C13.3007 29.6957 13.3007 30.2776 12.9121 30.6656ZM21.8987 33.7692C21.8015 34.2057 21.4129 34.5452 20.9271 34.5452C20.4414 34.5452 20.0528 34.2057 19.9556 33.7692C19.9556 33.7207 19.9556 33.6237 19.9556 33.5753C19.9556 33.0418 20.3928 32.6054 20.9271 32.6054C21.4615 32.6054 21.8987 33.0418 21.8987 33.5753C21.8987 33.5753 21.8987 33.6722 21.8987 33.7692ZM31.6139 23.4398C31.3224 24.9916 30.7395 26.398 29.8652 27.6589C29.7194 27.6589 29.6223 27.6104 29.4765 27.6104C28.8451 27.6104 28.2136 27.8528 27.7764 28.3378C27.1935 28.9197 26.9992 29.6957 27.0963 30.4716C25.8819 31.296 24.4732 31.9264 22.9188 32.2174C22.4816 31.587 21.7529 31.199 20.9271 31.199C20.1013 31.199 19.3727 31.587 18.9355 32.2174C17.3325 31.9264 15.8752 31.296 14.6122 30.3746C14.7094 29.6472 14.4665 28.9197 13.9322 28.3378C13.4464 27.8528 12.8149 27.6104 12.232 27.6104C12.1348 27.6104 12.0377 27.6104 11.9405 27.6589C11.1147 26.4465 10.4832 25.0401 10.1918 23.4883C10.8233 23.0518 11.2605 22.3244 11.2605 21.5C11.2605 20.6756 10.8233 19.9482 10.1918 19.5117C10.4832 18.0084 11.0662 16.602 11.9405 15.3411C12.0863 15.3411 12.1834 15.3896 12.3291 15.3896C12.9606 15.3896 13.5921 15.1472 14.0293 14.6622C14.6122 14.0803 14.8065 13.3043 14.7094 12.5284C15.9724 11.6555 17.3811 11.0736 18.9355 10.7826C19.3727 11.413 20.1013 11.801 20.9271 11.801C21.7529 11.801 22.433 11.413 22.9188 10.7826C24.376 11.0736 25.7848 11.607 26.9506 12.4314C26.8049 13.2074 26.9992 14.0318 27.6307 14.6137C28.1164 15.0987 28.7479 15.3411 29.3308 15.3411C29.4765 15.3411 29.6709 15.3411 29.8166 15.2926C30.691 16.5535 31.2739 17.9599 31.5653 19.5117C30.9824 19.9482 30.5452 20.6756 30.5452 21.4515C30.5452 22.2274 30.9824 22.9548 31.6139 23.4398ZM33.1683 22.4699C33.1198 22.4699 33.0712 22.4699 33.0226 22.4699C32.4883 22.4699 32.0511 22.0334 32.0511 21.5C32.0511 20.9666 32.4883 20.5301 33.0226 20.5301C33.0712 20.5301 33.1198 20.5301 33.1683 20.5301C33.6055 20.6271 33.9941 21.015 33.9941 21.5C33.9941 21.9849 33.6541 22.3729 33.1683 22.4699Z" fill="black" fill-opacity="0.5"/>
<path d="M23.4956 22.6972C22.478 22.2669 22.2841 21.8367 22.2841 21.4542C22.2841 21.0239 22.5749 20.5936 22.9141 20.3068C23.4956 19.7331 23.8348 18.9681 23.8348 18.1076C23.8348 16.4343 22.8172 15 20.9758 15C19.1344 15 18.1167 16.4343 18.1167 18.1076C18.1167 19.0159 18.4559 19.7809 19.0374 20.3068C19.3767 20.6414 19.6674 21.0239 19.6674 21.4542C19.6674 21.8845 19.522 22.2669 18.4559 22.6972C16.9537 23.3187 15.5485 24.0359 15.5 25.3745C15.5 26.2829 16.1784 27 17.0507 27H24.9493C25.8216 27 26.5 26.2829 26.5 25.3745C26.4515 24.0359 24.9978 23.3665 23.4956 22.6972Z" fill="black" fill-opacity="0.5"/>
</svg>
