<svg width="24" height="24" viewBox="0 0 24 24" fill="none" xmlns="http://www.w3.org/2000/svg">
<path d="M7.97339 22V12.85C7.12339 12.6167 6.41106 12.15 5.83639 11.45C5.26172 10.75 4.97406 9.93333 4.97339 9V2H6.97339V9H7.97339V2H9.97339V9H10.9734V2H12.9734V9C12.9734 9.93333 12.6861 10.75 12.1114 11.45C11.5367 12.15 10.8241 12.6167 9.97339 12.85V22H7.97339ZM17.9734 22V14H14.9734V7C14.9734 5.61667 15.4611 4.43767 16.4364 3.463C17.4117 2.48833 18.5907 2.00067 19.9734 2V22H17.9734Z" fill="#22ADE7"/>
</svg>
