<svg width="43" height="42" viewBox="0 0 43 42" fill="none" xmlns="http://www.w3.org/2000/svg">
<g clip-path="url(#clip0_204_288)">
<path d="M6.86636 36.75H11.1961C11.8126 36.75 12.3124 36.2501 12.3124 35.6336V25.8476C12.3124 25.231 11.8125 24.7312 11.1961 24.7312H6.86636C6.24982 24.7312 5.75 25.2311 5.75 25.8476V35.6336C5.75 36.2501 6.2499 36.75 6.86636 36.75Z" fill="black" fill-opacity="0.5"/>
<path d="M16.7101 36.75H21.0398C21.6564 36.75 22.1562 36.2501 22.1562 35.6336V19.2851C22.1562 18.6685 21.6563 18.1687 21.0398 18.1687H16.7101C16.0936 18.1687 15.5938 18.6686 15.5938 19.2851V35.6336C15.5938 36.2501 16.0936 36.75 16.7101 36.75Z" fill="black" fill-opacity="0.5"/>
<path d="M26.5539 36.75H30.8836C31.5001 36.75 31.9999 36.2501 31.9999 35.6336V11.4101C31.9999 10.7935 31.5 10.2937 30.8836 10.2937H26.5539C25.9373 10.2937 25.4375 10.7936 25.4375 11.4101V35.6336C25.4375 36.2501 25.9374 36.75 26.5539 36.75Z" fill="black" fill-opacity="0.5"/>
<path d="M36.3976 36.75H40.7273C41.3439 36.75 41.8437 36.2501 41.8437 35.6336V3.53506C41.8437 2.91852 41.3438 2.4187 40.7273 2.4187H36.3976C35.7811 2.4187 35.2812 2.9186 35.2812 3.53506V35.6336C35.2812 36.2501 35.7811 36.75 36.3976 36.75Z" fill="black" fill-opacity="0.5"/>
<path d="M41.3836 39.5391H4.24136C3.6249 39.5391 3.125 39.0392 3.125 38.4227V1.11636C3.125 0.499898 2.6251 0 2.00864 0H1.61645C0.999898 0 0.5 0.499898 0.5 1.11636V40.8836C0.5 41.5001 0.999898 42 1.61636 42H41.3836C42.0001 42 42.4999 41.5001 42.4999 40.8836V40.6555C42.5 40.039 42.0001 39.5391 41.3836 39.5391Z" fill="black" fill-opacity="0.5"/>
</g>
<defs>
<clipPath id="clip0_204_288">
<rect width="42" height="42" fill="white" transform="translate(0.5)"/>
</clipPath>
</defs>
</svg>
